<mxfile modified="2019-10-16T07:52:09.366Z" host="www.draw.io" agent="Mozilla/5.0 (Windows NT 10.0; Win64; x64) AppleWebKit/537.36 (KHTML, like Gecko) Chrome/76.0.3809.132 Safari/537.36" etag="pcGo1uv_WlNoRqRJYtoJ" version="12.1.1" type="github" pages="1">
  <diagram id="tahspZ0msBs8DqcMJwkn" name="Page-1">
    <mxGraphModel dx="2249" dy="762" grid="1" gridSize="10" guides="1" tooltips="1" connect="1" arrows="1" fold="1" page="1" pageScale="1" pageWidth="827" pageHeight="1169" math="0" shadow="0">
      <root>
        <mxCell id="0"/>
        <mxCell id="1" parent="0"/>
        <mxCell id="hfwFtxcp2dt8vxLj88kP-35" value="Walmart Network" style="rounded=0;whiteSpace=wrap;html=1;fontSize=21;verticalAlign=top;" parent="1" vertex="1">
          <mxGeometry x="95" y="20" width="985" height="550" as="geometry"/>
        </mxCell>
        <mxCell id="hfwFtxcp2dt8vxLj88kP-14" value="Aloha Services" style="rounded=0;whiteSpace=wrap;html=1;dashed=1;horizontal=1;verticalAlign=top;fontSize=21;" parent="1" vertex="1">
          <mxGeometry x="210" y="167" width="520" height="173" as="geometry"/>
        </mxCell>
        <mxCell id="hfwFtxcp2dt8vxLj88kP-37" style="edgeStyle=none;rounded=0;orthogonalLoop=1;jettySize=auto;html=1;entryX=0;entryY=0.5;entryDx=0;entryDy=0;entryPerimeter=0;endArrow=none;endFill=0;fontSize=14;" parent="1" source="hfwFtxcp2dt8vxLj88kP-4" target="hfwFtxcp2dt8vxLj88kP-6" edge="1">
          <mxGeometry relative="1" as="geometry"/>
        </mxCell>
        <mxCell id="hfwFtxcp2dt8vxLj88kP-4" value="" style="pointerEvents=1;shadow=0;dashed=0;html=1;strokeColor=none;labelPosition=center;verticalLabelPosition=bottom;verticalAlign=top;outlineConnect=0;align=center;shape=mxgraph.office.concepts.firewall;fillColor=#2072B8;" parent="1" vertex="1">
          <mxGeometry x="68" y="520" width="47" height="43" as="geometry"/>
        </mxCell>
        <mxCell id="hfwFtxcp2dt8vxLj88kP-6" value="" style="pointerEvents=1;shadow=0;dashed=0;html=1;strokeColor=none;labelPosition=center;verticalLabelPosition=bottom;verticalAlign=top;align=center;shape=mxgraph.mscae.deprecated.application_gateway;fillColor=#0078D7;" parent="1" vertex="1">
          <mxGeometry x="300" y="317" width="50" height="50" as="geometry"/>
        </mxCell>
        <mxCell id="hfwFtxcp2dt8vxLj88kP-26" style="edgeStyle=none;rounded=0;orthogonalLoop=1;jettySize=auto;html=1;entryX=0.77;entryY=0.23;entryDx=0;entryDy=0;entryPerimeter=0;endArrow=none;endFill=0;" parent="1" source="hfwFtxcp2dt8vxLj88kP-7" target="hfwFtxcp2dt8vxLj88kP-6" edge="1">
          <mxGeometry relative="1" as="geometry"/>
        </mxCell>
        <mxCell id="hfwFtxcp2dt8vxLj88kP-27" style="edgeStyle=none;rounded=0;orthogonalLoop=1;jettySize=auto;html=1;entryX=0.23;entryY=0.23;entryDx=0;entryDy=0;entryPerimeter=0;endArrow=none;endFill=0;" parent="1" source="hfwFtxcp2dt8vxLj88kP-7" target="hfwFtxcp2dt8vxLj88kP-15" edge="1">
          <mxGeometry relative="1" as="geometry"/>
        </mxCell>
        <mxCell id="hfwFtxcp2dt8vxLj88kP-7" value="" style="aspect=fixed;pointerEvents=1;shadow=0;dashed=0;html=1;strokeColor=none;labelPosition=center;verticalLabelPosition=bottom;verticalAlign=top;align=center;shape=mxgraph.mscae.enterprise.cluster_server;fillColor=#00188D;" parent="1" vertex="1">
          <mxGeometry x="450" y="226.5" width="40" height="50" as="geometry"/>
        </mxCell>
        <mxCell id="hfwFtxcp2dt8vxLj88kP-28" style="edgeStyle=none;rounded=0;orthogonalLoop=1;jettySize=auto;html=1;entryX=0.77;entryY=0.23;entryDx=0;entryDy=0;entryPerimeter=0;endArrow=none;endFill=0;" parent="1" source="hfwFtxcp2dt8vxLj88kP-8" target="hfwFtxcp2dt8vxLj88kP-6" edge="1">
          <mxGeometry relative="1" as="geometry"/>
        </mxCell>
        <mxCell id="hfwFtxcp2dt8vxLj88kP-29" style="edgeStyle=none;rounded=0;orthogonalLoop=1;jettySize=auto;html=1;entryX=0.23;entryY=0.23;entryDx=0;entryDy=0;entryPerimeter=0;endArrow=none;endFill=0;" parent="1" source="hfwFtxcp2dt8vxLj88kP-8" target="hfwFtxcp2dt8vxLj88kP-15" edge="1">
          <mxGeometry relative="1" as="geometry"/>
        </mxCell>
        <mxCell id="hfwFtxcp2dt8vxLj88kP-8" value="" style="aspect=fixed;pointerEvents=1;shadow=0;dashed=0;html=1;strokeColor=none;labelPosition=center;verticalLabelPosition=bottom;verticalAlign=top;align=center;shape=mxgraph.mscae.enterprise.cluster_server;fillColor=#00188D;" parent="1" vertex="1">
          <mxGeometry x="530" y="226.5" width="40" height="50" as="geometry"/>
        </mxCell>
        <mxCell id="hfwFtxcp2dt8vxLj88kP-24" style="edgeStyle=none;rounded=0;orthogonalLoop=1;jettySize=auto;html=1;entryX=0.77;entryY=0.23;entryDx=0;entryDy=0;entryPerimeter=0;endArrow=none;endFill=0;" parent="1" source="hfwFtxcp2dt8vxLj88kP-9" target="hfwFtxcp2dt8vxLj88kP-6" edge="1">
          <mxGeometry relative="1" as="geometry"/>
        </mxCell>
        <mxCell id="hfwFtxcp2dt8vxLj88kP-25" style="edgeStyle=none;rounded=0;orthogonalLoop=1;jettySize=auto;html=1;entryX=0.23;entryY=0.23;entryDx=0;entryDy=0;entryPerimeter=0;endArrow=none;endFill=0;" parent="1" source="hfwFtxcp2dt8vxLj88kP-9" target="hfwFtxcp2dt8vxLj88kP-15" edge="1">
          <mxGeometry relative="1" as="geometry"/>
        </mxCell>
        <mxCell id="hfwFtxcp2dt8vxLj88kP-9" value="" style="aspect=fixed;pointerEvents=1;shadow=0;dashed=0;html=1;strokeColor=none;labelPosition=center;verticalLabelPosition=bottom;verticalAlign=top;align=center;shape=mxgraph.mscae.enterprise.cluster_server;fillColor=#00188D;" parent="1" vertex="1">
          <mxGeometry x="370" y="226.5" width="40" height="50" as="geometry"/>
        </mxCell>
        <mxCell id="RqzlV3vBSAx1rYNUOSql-33" style="edgeStyle=none;rounded=0;orthogonalLoop=1;jettySize=auto;html=1;entryX=0.77;entryY=0.77;entryDx=0;entryDy=0;entryPerimeter=0;endArrow=none;endFill=0;" parent="1" source="hfwFtxcp2dt8vxLj88kP-10" target="hfwFtxcp2dt8vxLj88kP-15" edge="1">
          <mxGeometry relative="1" as="geometry"/>
        </mxCell>
        <mxCell id="hfwFtxcp2dt8vxLj88kP-10" value="&lt;br&gt;&lt;table border=&quot;0&quot; cellpadding=&quot;0&quot; cellspacing=&quot;0&quot; width=&quot;265&quot; style=&quot;border-collapse: collapse ; width: 199pt&quot;&gt;&lt;tbody&gt;&lt;tr style=&quot;height: 15.75pt&quot;&gt;  &lt;td height=&quot;21&quot; class=&quot;xl65&quot; width=&quot;265&quot; style=&quot;height: 15.75pt ; width: 199pt&quot;&gt;https://mco-image.walmartmobile.cn&lt;/td&gt;&lt;/tr&gt;&lt;/tbody&gt;&lt;/table&gt;" style="aspect=fixed;pointerEvents=1;shadow=0;dashed=0;html=1;strokeColor=none;labelPosition=center;verticalLabelPosition=bottom;verticalAlign=top;align=center;shape=mxgraph.mscae.enterprise.cluster_server;fillColor=#00188D;horizontal=1;flipV=0;" parent="1" vertex="1">
          <mxGeometry x="900" y="350" width="40" height="50" as="geometry"/>
        </mxCell>
        <mxCell id="RqzlV3vBSAx1rYNUOSql-31" style="edgeStyle=none;rounded=0;orthogonalLoop=1;jettySize=auto;html=1;entryX=1;entryY=0.5;entryDx=0;entryDy=0;entryPerimeter=0;endArrow=none;endFill=0;" parent="1" source="hfwFtxcp2dt8vxLj88kP-11" target="hfwFtxcp2dt8vxLj88kP-15" edge="1">
          <mxGeometry relative="1" as="geometry"/>
        </mxCell>
        <mxCell id="hfwFtxcp2dt8vxLj88kP-11" value="exchange.cn.wal-mart.com" style="aspect=fixed;pointerEvents=1;shadow=0;dashed=0;html=1;strokeColor=none;labelPosition=center;verticalLabelPosition=bottom;verticalAlign=top;align=center;shape=mxgraph.mscae.enterprise.cluster_server;fillColor=#00188D;flipV=0;" parent="1" vertex="1">
          <mxGeometry x="900" y="161" width="40" height="50" as="geometry"/>
        </mxCell>
        <mxCell id="bRh-UMMSjyc70m4j1y3N-4" style="edgeStyle=none;rounded=0;orthogonalLoop=1;jettySize=auto;html=1;entryX=0.01;entryY=0.01;entryDx=0;entryDy=0;entryPerimeter=0;exitX=0.77;exitY=0.77;exitDx=0;exitDy=0;exitPerimeter=0;endArrow=none;endFill=0;" edge="1" parent="1" source="hfwFtxcp2dt8vxLj88kP-15" target="bRh-UMMSjyc70m4j1y3N-3">
          <mxGeometry relative="1" as="geometry"/>
        </mxCell>
        <mxCell id="hfwFtxcp2dt8vxLj88kP-15" value="" style="pointerEvents=1;shadow=0;dashed=0;html=1;strokeColor=none;labelPosition=center;verticalLabelPosition=bottom;verticalAlign=top;align=center;shape=mxgraph.mscae.deprecated.application_gateway;fillColor=#0078D7;" parent="1" vertex="1">
          <mxGeometry x="600" y="317" width="50" height="50" as="geometry"/>
        </mxCell>
        <mxCell id="hfwFtxcp2dt8vxLj88kP-30" value="Internet Gateway" style="text;html=1;strokeColor=none;fillColor=none;align=center;verticalAlign=middle;whiteSpace=wrap;rounded=0;dashed=1;fontSize=14;" parent="1" vertex="1">
          <mxGeometry x="305" y="390" width="40" height="20" as="geometry"/>
        </mxCell>
        <mxCell id="hfwFtxcp2dt8vxLj88kP-31" value="Intranet Gateway" style="text;html=1;strokeColor=none;fillColor=none;align=center;verticalAlign=middle;whiteSpace=wrap;rounded=0;dashed=1;fontSize=14;" parent="1" vertex="1">
          <mxGeometry x="605" y="390" width="40" height="20" as="geometry"/>
        </mxCell>
        <mxCell id="hfwFtxcp2dt8vxLj88kP-39" style="edgeStyle=none;rounded=0;orthogonalLoop=1;jettySize=auto;html=1;endArrow=none;endFill=0;fontSize=14;" parent="1" source="hfwFtxcp2dt8vxLj88kP-34" target="hfwFtxcp2dt8vxLj88kP-4" edge="1">
          <mxGeometry relative="1" as="geometry"/>
        </mxCell>
        <mxCell id="hfwFtxcp2dt8vxLj88kP-34" value="Internet" style="verticalLabelPosition=bottom;html=1;verticalAlign=top;align=center;strokeColor=none;fillColor=#00BEF2;shape=mxgraph.azure.cloud;fontSize=14;" parent="1" vertex="1">
          <mxGeometry x="-260" y="320.5" width="140" height="69" as="geometry"/>
        </mxCell>
        <mxCell id="hfwFtxcp2dt8vxLj88kP-36" value="https://aloha.walmartmobile.cn" style="text;html=1;strokeColor=none;fillColor=none;align=center;verticalAlign=middle;whiteSpace=wrap;rounded=0;fontSize=14;" parent="1" vertex="1">
          <mxGeometry x="71.5" y="574" width="40" height="20" as="geometry"/>
        </mxCell>
        <mxCell id="RqzlV3vBSAx1rYNUOSql-25" style="edgeStyle=none;rounded=0;orthogonalLoop=1;jettySize=auto;html=1;entryX=0.8;entryY=0.19;entryDx=0;entryDy=0;entryPerimeter=0;endArrow=none;endFill=0;" parent="1" source="hfwFtxcp2dt8vxLj88kP-53" target="hfwFtxcp2dt8vxLj88kP-34" edge="1">
          <mxGeometry relative="1" as="geometry"/>
        </mxCell>
        <mxCell id="hfwFtxcp2dt8vxLj88kP-53" value="&lt;table border=&quot;0&quot; cellpadding=&quot;0&quot; cellspacing=&quot;0&quot; width=&quot;265&quot; style=&quot;border-collapse: collapse ; width: 199pt&quot;&gt;&lt;tbody&gt;&lt;tr style=&quot;height: 15.75pt&quot;&gt;&lt;br/&gt;  &lt;td height=&quot;21&quot; class=&quot;xl64&quot; width=&quot;265&quot; style=&quot;height: 15.75pt ; width: 199pt&quot;&gt;https://payapp.weixin.qq.com&lt;/td&gt;&lt;/tr&gt;&lt;/tbody&gt;&lt;/table&gt;" style="shadow=0;dashed=0;html=1;strokeColor=none;labelPosition=center;verticalLabelPosition=bottom;verticalAlign=top;align=center;shape=mxgraph.mscae.cloud.api_app;fillColor=#0079D6;pointerEvents=1;" parent="1" vertex="1">
          <mxGeometry x="-50" y="161" width="45" height="50" as="geometry"/>
        </mxCell>
        <mxCell id="RqzlV3vBSAx1rYNUOSql-15" style="rounded=0;orthogonalLoop=1;jettySize=auto;html=1;entryX=0.3;entryY=0.35;entryDx=0;entryDy=0;entryPerimeter=0;endArrow=none;endFill=0;" parent="1" source="RqzlV3vBSAx1rYNUOSql-1" target="hfwFtxcp2dt8vxLj88kP-34" edge="1">
          <mxGeometry relative="1" as="geometry"/>
        </mxCell>
        <mxCell id="RqzlV3vBSAx1rYNUOSql-1" value="&lt;table border=&quot;0&quot; cellpadding=&quot;0&quot; cellspacing=&quot;0&quot; width=&quot;265&quot; style=&quot;border-collapse: collapse ; width: 199pt&quot;&gt;&lt;tbody&gt;&lt;tr style=&quot;height: 15.75pt&quot;&gt;&lt;td height=&quot;21&quot; class=&quot;xl64&quot; width=&quot;265&quot; style=&quot;height: 15.75pt ; width: 199pt&quot;&gt;&lt;/td&gt;&lt;/tr&gt;&lt;/tbody&gt;&lt;/table&gt;https://openapi.yhd.com" style="shadow=0;dashed=0;html=1;strokeColor=none;labelPosition=center;verticalLabelPosition=bottom;verticalAlign=top;align=center;shape=mxgraph.mscae.cloud.api_app;fillColor=#0079D6;pointerEvents=1;" parent="1" vertex="1">
          <mxGeometry x="-550" y="161" width="45" height="50" as="geometry"/>
        </mxCell>
        <mxCell id="RqzlV3vBSAx1rYNUOSql-30" style="edgeStyle=none;rounded=0;orthogonalLoop=1;jettySize=auto;html=1;entryX=0.77;entryY=0.23;entryDx=0;entryDy=0;entryPerimeter=0;endArrow=none;endFill=0;" parent="1" source="RqzlV3vBSAx1rYNUOSql-2" target="hfwFtxcp2dt8vxLj88kP-15" edge="1">
          <mxGeometry relative="1" as="geometry"/>
        </mxCell>
        <mxCell id="RqzlV3vBSAx1rYNUOSql-2" value="http://oms.cn.wal-mart.com:8080" style="aspect=fixed;pointerEvents=1;shadow=0;dashed=0;html=1;strokeColor=none;labelPosition=center;verticalLabelPosition=bottom;verticalAlign=top;align=center;shape=mxgraph.mscae.enterprise.cluster_server;fillColor=#00188D;flipV=0;" parent="1" vertex="1">
          <mxGeometry x="900" y="66.5" width="40" height="50" as="geometry"/>
        </mxCell>
        <mxCell id="RqzlV3vBSAx1rYNUOSql-32" style="edgeStyle=none;rounded=0;orthogonalLoop=1;jettySize=auto;html=1;entryX=0.77;entryY=0.77;entryDx=0;entryDy=0;entryPerimeter=0;endArrow=none;endFill=0;" parent="1" source="RqzlV3vBSAx1rYNUOSql-4" target="hfwFtxcp2dt8vxLj88kP-15" edge="1">
          <mxGeometry relative="1" as="geometry"/>
        </mxCell>
        <mxCell id="RqzlV3vBSAx1rYNUOSql-4" value="http://esb.cn.wal-mart.com" style="aspect=fixed;pointerEvents=1;shadow=0;dashed=0;html=1;strokeColor=none;labelPosition=center;verticalLabelPosition=bottom;verticalAlign=top;align=center;shape=mxgraph.mscae.enterprise.cluster_server;fillColor=#00188D;flipV=0;" parent="1" vertex="1">
          <mxGeometry x="900" y="245" width="40" height="50" as="geometry"/>
        </mxCell>
        <mxCell id="RqzlV3vBSAx1rYNUOSql-16" style="edgeStyle=none;rounded=0;orthogonalLoop=1;jettySize=auto;html=1;entryX=0.05;entryY=0.5;entryDx=0;entryDy=0;entryPerimeter=0;endArrow=none;endFill=0;" parent="1" source="RqzlV3vBSAx1rYNUOSql-5" target="hfwFtxcp2dt8vxLj88kP-34" edge="1">
          <mxGeometry relative="1" as="geometry"/>
        </mxCell>
        <mxCell id="RqzlV3vBSAx1rYNUOSql-5" value="https://qyapi.weixin.qq.com" style="shadow=0;dashed=0;html=1;strokeColor=none;labelPosition=center;verticalLabelPosition=bottom;verticalAlign=top;align=center;shape=mxgraph.mscae.cloud.api_app;fillColor=#0079D6;pointerEvents=1;" parent="1" vertex="1">
          <mxGeometry x="-550" y="273" width="45" height="50" as="geometry"/>
        </mxCell>
        <mxCell id="RqzlV3vBSAx1rYNUOSql-18" style="edgeStyle=none;rounded=0;orthogonalLoop=1;jettySize=auto;html=1;entryX=0.2;entryY=1;entryDx=0;entryDy=0;entryPerimeter=0;endArrow=none;endFill=0;" parent="1" source="RqzlV3vBSAx1rYNUOSql-6" target="hfwFtxcp2dt8vxLj88kP-34" edge="1">
          <mxGeometry relative="1" as="geometry"/>
        </mxCell>
        <mxCell id="RqzlV3vBSAx1rYNUOSql-6" value="https://gateway.95516.com" style="shadow=0;dashed=0;html=1;strokeColor=none;labelPosition=center;verticalLabelPosition=bottom;verticalAlign=top;align=center;shape=mxgraph.mscae.cloud.api_app;fillColor=#0079D6;pointerEvents=1;" parent="1" vertex="1">
          <mxGeometry x="-550" y="497" width="45" height="50" as="geometry"/>
        </mxCell>
        <mxCell id="RqzlV3vBSAx1rYNUOSql-19" style="edgeStyle=none;rounded=0;orthogonalLoop=1;jettySize=auto;html=1;entryX=0.286;entryY=1.007;entryDx=0;entryDy=0;entryPerimeter=0;endArrow=none;endFill=0;" parent="1" source="RqzlV3vBSAx1rYNUOSql-7" target="hfwFtxcp2dt8vxLj88kP-34" edge="1">
          <mxGeometry relative="1" as="geometry"/>
        </mxCell>
        <mxCell id="RqzlV3vBSAx1rYNUOSql-7" value="http://www.specialUrl.com" style="shadow=0;dashed=0;html=1;strokeColor=none;labelPosition=center;verticalLabelPosition=bottom;verticalAlign=top;align=center;shape=mxgraph.mscae.cloud.api_app;fillColor=#0079D6;pointerEvents=1;" parent="1" vertex="1">
          <mxGeometry x="-550" y="609" width="45" height="50" as="geometry"/>
        </mxCell>
        <mxCell id="RqzlV3vBSAx1rYNUOSql-23" style="edgeStyle=none;rounded=0;orthogonalLoop=1;jettySize=auto;html=1;entryX=0.536;entryY=0.065;entryDx=0;entryDy=0;entryPerimeter=0;endArrow=none;endFill=0;" parent="1" source="RqzlV3vBSAx1rYNUOSql-8" target="hfwFtxcp2dt8vxLj88kP-34" edge="1">
          <mxGeometry relative="1" as="geometry"/>
        </mxCell>
        <mxCell id="RqzlV3vBSAx1rYNUOSql-8" value="http://walmart.ghsmpwalmart.com" style="shadow=0;dashed=0;html=1;strokeColor=none;labelPosition=center;verticalLabelPosition=bottom;verticalAlign=top;align=center;shape=mxgraph.mscae.cloud.api_app;fillColor=#0079D6;pointerEvents=1;" parent="1" vertex="1">
          <mxGeometry x="-383" y="161" width="45" height="50" as="geometry"/>
        </mxCell>
        <mxCell id="RqzlV3vBSAx1rYNUOSql-17" style="edgeStyle=none;rounded=0;orthogonalLoop=1;jettySize=auto;html=1;endArrow=none;endFill=0;" parent="1" source="RqzlV3vBSAx1rYNUOSql-9" target="hfwFtxcp2dt8vxLj88kP-34" edge="1">
          <mxGeometry relative="1" as="geometry"/>
        </mxCell>
        <mxCell id="RqzlV3vBSAx1rYNUOSql-9" value="https://openapi.alipay.com/" style="shadow=0;dashed=0;html=1;strokeColor=none;labelPosition=center;verticalLabelPosition=bottom;verticalAlign=top;align=center;shape=mxgraph.mscae.cloud.api_app;fillColor=#0079D6;pointerEvents=1;" parent="1" vertex="1">
          <mxGeometry x="-550" y="385" width="45" height="50" as="geometry"/>
        </mxCell>
        <mxCell id="RqzlV3vBSAx1rYNUOSql-20" style="edgeStyle=none;rounded=0;orthogonalLoop=1;jettySize=auto;html=1;entryX=0.357;entryY=0.993;entryDx=0;entryDy=0;entryPerimeter=0;endArrow=none;endFill=0;" parent="1" source="RqzlV3vBSAx1rYNUOSql-10" target="hfwFtxcp2dt8vxLj88kP-34" edge="1">
          <mxGeometry relative="1" as="geometry"/>
        </mxCell>
        <mxCell id="RqzlV3vBSAx1rYNUOSql-10" value="https://qyapi.weixin.qq.com" style="shadow=0;dashed=0;html=1;strokeColor=none;labelPosition=center;verticalLabelPosition=bottom;verticalAlign=top;align=center;shape=mxgraph.mscae.cloud.api_app;fillColor=#0079D6;pointerEvents=1;" parent="1" vertex="1">
          <mxGeometry x="-397" y="609" width="45" height="50" as="geometry"/>
        </mxCell>
        <mxCell id="RqzlV3vBSAx1rYNUOSql-24" style="edgeStyle=none;rounded=0;orthogonalLoop=1;jettySize=auto;html=1;entryX=0.686;entryY=0.094;entryDx=0;entryDy=0;entryPerimeter=0;endArrow=none;endFill=0;" parent="1" source="RqzlV3vBSAx1rYNUOSql-11" target="hfwFtxcp2dt8vxLj88kP-34" edge="1">
          <mxGeometry relative="1" as="geometry"/>
        </mxCell>
        <mxCell id="RqzlV3vBSAx1rYNUOSql-11" value="https://merchant-api.dmall.com" style="shadow=0;dashed=0;html=1;strokeColor=none;labelPosition=center;verticalLabelPosition=bottom;verticalAlign=top;align=center;shape=mxgraph.mscae.cloud.api_app;fillColor=#0079D6;pointerEvents=1;" parent="1" vertex="1">
          <mxGeometry x="-217" y="161" width="45" height="50" as="geometry"/>
        </mxCell>
        <mxCell id="RqzlV3vBSAx1rYNUOSql-26" style="edgeStyle=none;rounded=0;orthogonalLoop=1;jettySize=auto;html=1;endArrow=none;endFill=0;" parent="1" source="RqzlV3vBSAx1rYNUOSql-12" target="hfwFtxcp2dt8vxLj88kP-34" edge="1">
          <mxGeometry relative="1" as="geometry"/>
        </mxCell>
        <mxCell id="RqzlV3vBSAx1rYNUOSql-12" value="https://dopen.ghsmpwalmart.com/" style="shadow=0;dashed=0;html=1;strokeColor=none;labelPosition=center;verticalLabelPosition=bottom;verticalAlign=top;align=center;shape=mxgraph.mscae.cloud.api_app;fillColor=#0079D6;pointerEvents=1;" parent="1" vertex="1">
          <mxGeometry x="-90" y="609" width="45" height="50" as="geometry"/>
        </mxCell>
        <mxCell id="RqzlV3vBSAx1rYNUOSql-21" style="edgeStyle=none;rounded=0;orthogonalLoop=1;jettySize=auto;html=1;endArrow=none;endFill=0;" parent="1" source="RqzlV3vBSAx1rYNUOSql-13" edge="1">
          <mxGeometry relative="1" as="geometry">
            <mxPoint x="-200" y="390" as="targetPoint"/>
          </mxGeometry>
        </mxCell>
        <mxCell id="RqzlV3vBSAx1rYNUOSql-13" value="http://wal.darlingdean.com/" style="shadow=0;dashed=0;html=1;strokeColor=none;labelPosition=center;verticalLabelPosition=bottom;verticalAlign=top;align=center;shape=mxgraph.mscae.cloud.api_app;fillColor=#0079D6;pointerEvents=1;" parent="1" vertex="1">
          <mxGeometry x="-243" y="609" width="45" height="50" as="geometry"/>
        </mxCell>
        <mxCell id="bRh-UMMSjyc70m4j1y3N-3" value="&lt;table border=&quot;0&quot; cellpadding=&quot;0&quot; cellspacing=&quot;0&quot; width=&quot;265&quot; style=&quot;border-collapse: collapse ; width: 199pt&quot;&gt;&lt;tbody&gt;&lt;tr style=&quot;height: 15.75pt&quot;&gt;&lt;td height=&quot;21&quot; class=&quot;xl65&quot; width=&quot;265&quot; style=&quot;height: 15.75pt ; width: 199pt&quot;&gt;&lt;/td&gt;&lt;/tr&gt;&lt;/tbody&gt;&lt;/table&gt;电子标签" style="aspect=fixed;pointerEvents=1;shadow=0;dashed=0;html=1;strokeColor=none;labelPosition=center;verticalLabelPosition=bottom;verticalAlign=top;align=center;shape=mxgraph.mscae.enterprise.cluster_server;fillColor=#00188D;horizontal=1;flipV=0;" vertex="1" parent="1">
          <mxGeometry x="910" y="460" width="40" height="50" as="geometry"/>
        </mxCell>
      </root>
    </mxGraphModel>
  </diagram>
</mxfile>
